<svg width="31" height="31" viewBox="0 0 31 31" fill="none" xmlns="http://www.w3.org/2000/svg">
<g id="Calling">
<g id="Iconly/Bulk/Calling">
<g id="Group" opacity="0.4">
<g id="Calling_2">
<path id="Fill-1" d="M18.5229 7.3622C17.9278 7.25227 17.3813 7.63201 17.2681 8.21286C17.1548 8.79372 17.5357 9.36083 18.1146 9.4745C19.8574 9.81427 21.2031 11.1633 21.5442 12.9121C21.6413 13.4155 22.0845 13.7828 22.5949 13.7828C22.6634 13.7828 22.7318 13.7765 22.8015 13.7641C23.3804 13.6479 23.7613 13.082 23.648 12.4999C23.1389 9.88796 21.1284 7.8706 18.5229 7.3622Z" fill="#302CFF"/>
<path id="Fill-3" d="M18.4451 3.00991C18.1662 2.96994 17.8861 3.05238 17.6633 3.22976C17.4342 3.40964 17.2911 3.66946 17.2599 3.96051C17.194 4.54886 17.6185 5.08099 18.206 5.14719C22.2581 5.59938 25.4077 8.75597 25.8633 12.8207C25.9243 13.3653 26.3811 13.7763 26.9264 13.7763C26.9675 13.7763 27.0073 13.7738 27.0484 13.7688C27.3335 13.7375 27.5874 13.5964 27.7667 13.3715C27.9447 13.1467 28.0256 12.8669 27.9933 12.5808C27.4256 7.50932 23.5005 3.57328 18.4451 3.00991Z" fill="#302CFF"/>
</g>
</g>
<g id="Call">
<path id="Stroke-1" fill-rule="evenodd" clip-rule="evenodd" d="M14.2897 16.7155C19.276 21.7005 20.4072 15.9334 23.5821 19.106C26.6428 22.1659 28.402 22.779 24.524 26.6559C24.0383 27.0463 20.952 31.7428 10.1058 20.8996C-0.741848 10.055 3.95198 6.96556 4.34246 6.47994C8.22983 2.59231 8.83233 4.36173 11.8931 7.42166C15.068 10.5956 9.30332 11.7305 14.2897 16.7155Z" fill="#302CFF"/>
</g>
</g>
</g>
</svg>
