<svg width="80" height="80" viewBox="0 0 80 80" fill="none" xmlns="http://www.w3.org/2000/svg">
<g id="5fc182684bcd5775e8df3c5a_icon-follow-social-media-3-code-template 1">
<g clip-path="url(#clip0_749_1368)">
<path id="Vector" d="M80 0H0V80H80V0Z" fill="url(#paint0_radial_749_1368)"/>
<path id="Vector_2" d="M32.6684 40C32.6684 35.9498 35.9508 32.6658 40.0008 32.6658C44.051 32.6658 47.3351 35.9498 47.3351 40C47.3351 44.05 44.051 47.3342 40.0008 47.3342C35.9508 47.3342 32.6684 44.05 32.6684 40ZM28.7037 40C28.7037 46.2394 33.7614 51.2971 40.0008 51.2971C46.2404 51.2971 51.2981 46.2394 51.2981 40C51.2981 33.7604 46.2404 28.7027 40.0008 28.7027C33.7614 28.7027 28.7037 33.7602 28.7037 40ZM49.1054 28.2548C49.1051 28.777 49.2598 29.2875 49.5497 29.7218C49.8396 30.156 50.2519 30.4946 50.7342 30.6946C51.2165 30.8946 51.7473 30.9471 52.2595 30.8454C52.7717 30.7438 53.2422 30.4925 53.6116 30.1234C53.981 29.7543 54.2326 29.284 54.3347 28.7719C54.4367 28.2598 54.3847 27.729 54.185 27.2466C53.9854 26.764 53.6472 26.3516 53.2131 26.0612C52.7791 25.771 52.2687 25.616 51.7465 25.6158H51.7455C51.0456 25.6161 50.3744 25.8942 49.8793 26.389C49.3844 26.8838 49.106 27.5549 49.1054 28.2548ZM31.1126 57.9083C28.9675 57.8106 27.8017 57.4533 27.0269 57.1515C25.9997 56.7516 25.2668 56.2753 24.4963 55.5058C23.7256 54.7362 23.2488 54.0041 22.8505 52.9769C22.5485 52.2025 22.1912 51.0363 22.0937 48.8913C21.9871 46.5722 21.9658 45.8755 21.9658 40.0002C21.9658 34.125 21.9889 33.4303 22.0937 31.1092C22.1914 28.9643 22.5513 27.8003 22.8505 27.0236C23.2504 25.9965 23.7268 25.2636 24.4963 24.493C25.2658 23.7224 25.9979 23.2454 27.0269 22.8473C27.8013 22.5453 28.9675 22.188 31.1126 22.0905C33.4316 21.9839 34.1282 21.9625 40.0008 21.9625C45.8735 21.9625 46.5709 21.9853 48.8919 22.0909C51.0369 22.1886 52.2008 22.5485 52.9775 22.8477C54.0047 23.2458 54.7376 23.7238 55.5081 24.4933C56.2787 25.2628 56.754 25.9968 57.1538 27.024C57.4558 27.7985 57.8132 28.9647 57.9107 31.1096C58.0173 33.4306 58.0386 34.1253 58.0386 40.0006C58.0386 45.8759 58.0173 46.5706 57.9107 48.8916C57.813 51.0366 57.4539 52.2025 57.1538 52.9773C56.754 54.0045 56.2776 54.7374 55.5081 55.5061C54.7386 56.275 54.0047 56.7519 52.9775 57.1518C52.2031 57.4538 51.0369 57.8112 48.8919 57.9087C46.5728 58.0153 45.8761 58.0366 40.0008 58.0366C34.1256 58.0366 33.4309 58.0149 31.1126 57.9083ZM30.9304 18.1323C28.5882 18.2389 26.9878 18.6103 25.5901 19.1542C24.1435 19.7158 22.9173 20.4693 21.6928 21.6918C20.4683 22.9144 19.7168 24.1408 19.1551 25.5891C18.6113 26.9877 18.2399 28.5873 18.1333 30.9294C18.0248 33.2753 18 34.0252 18 40C18 45.9746 18.0248 46.7247 18.1333 49.0705C18.2399 51.4128 18.6113 53.0121 19.1551 54.4107C19.7168 55.8573 20.4685 57.086 21.6928 58.308C22.9171 59.53 24.1417 60.2824 25.5901 60.8457C26.9904 61.3895 28.5882 61.7609 30.9304 61.8675C33.2775 61.9742 34.0262 62.0008 40.0008 62.0008C45.9756 62.0008 46.7256 61.976 49.0714 61.8675C51.4137 61.7609 53.0131 61.3895 54.4117 60.8457C55.8583 60.2824 57.0845 59.5305 58.309 58.308C59.5335 57.0854 60.2834 55.8573 60.8466 54.4107C61.3905 53.0121 61.7636 51.4126 61.8685 49.0705C61.9752 46.7229 62 45.9746 62 40C62 34.0252 61.9752 33.2753 61.8685 30.9294C61.7619 28.5871 61.3905 26.9869 60.8466 25.5891C60.2834 24.1426 59.5315 22.9163 58.309 21.6918C57.0864 20.4674 55.8583 19.7158 54.4134 19.1542C53.0131 18.6103 51.4136 18.2371 49.0731 18.1323C46.727 18.0251 45.9774 17.999 40.0035 17.999C34.0296 17.999 33.2775 18.0239 30.9304 18.1323Z" fill="white"/>
</g>
</g>
<defs>
<radialGradient id="paint0_radial_749_1368" cx="0" cy="0" r="1" gradientUnits="userSpaceOnUse" gradientTransform="translate(5.17752 78.2474) scale(101.57)">
<stop offset="0.09" stop-color="#FA8F21"/>
<stop offset="0.78" stop-color="#D82D7E"/>
</radialGradient>
<clipPath id="clip0_749_1368">
<rect width="80" height="80" rx="15" fill="white"/>
</clipPath>
</defs>
</svg>
