<svg width="80" height="80" viewBox="0 0 80 80" fill="none" xmlns="http://www.w3.org/2000/svg">
<g id="5fc182688f82d822c7620687_icon-follow-social-media-4-code-template 1">
<g clip-path="url(#clip0_749_1377)">
<path id="Vector" d="M80 0H0V80H80V0Z" fill="#2477B5"/>
<path id="Vector_2" d="M18.3125 24.1438C18.3125 22.7528 18.801 21.6054 19.7779 20.7014C20.7548 19.7973 22.0248 19.3452 23.5879 19.3452C25.123 19.3452 26.3651 19.7903 27.3141 20.6805C28.291 21.5985 28.7795 22.7946 28.7795 24.269C28.7795 25.6042 28.305 26.7169 27.356 27.6071C26.379 28.5251 25.0951 28.9841 23.5041 28.9841H23.4622C21.9271 28.9841 20.685 28.5251 19.736 27.6071C18.787 26.6891 18.3125 25.5347 18.3125 24.1438ZM18.8568 60.6548V32.7813H28.1515V60.6548H18.8568ZM33.3012 60.6548H42.5958V45.0906C42.5958 44.117 42.7075 43.3659 42.9308 42.8374C43.3215 41.8916 43.9147 41.0918 44.7101 40.4381C45.5056 39.7844 46.5035 39.4575 47.7037 39.4575C50.8299 39.4575 52.3929 41.5577 52.3929 45.7583V60.6548H61.6876V44.6734C61.6876 40.5563 60.7106 37.4338 58.7568 35.3057C56.8029 33.1777 54.2211 32.1136 51.0112 32.1136C47.4107 32.1136 44.6055 33.6575 42.5958 36.7453V36.8287H42.554L42.5958 36.7453V32.7813H33.3012C33.357 33.6714 33.3849 36.4392 33.3849 41.0849C33.3849 45.7304 33.357 52.2537 33.3012 60.6548Z" fill="white"/>
</g>
</g>
<defs>
<clipPath id="clip0_749_1377">
<rect width="80" height="80" rx="15" fill="white"/>
</clipPath>
</defs>
</svg>
