<svg width="31" height="31" viewBox="0 0 31 31" fill="none" xmlns="http://www.w3.org/2000/svg">
<g id="Message">
<g id="Iconly/Bulk/Message">
<g id="Group">
<path id="Fill-1" opacity="0.4" d="M28 20.425C28 23.9125 25.2 26.7375 21.7125 26.75H21.7H9.3125C5.8375 26.75 3 23.9375 3 20.45V20.4375C3 20.4375 3.0075 14.905 3.0175 12.1225C3.01875 11.6 3.61875 11.3075 4.0275 11.6325C6.9975 13.9887 12.3088 18.285 12.375 18.3412C13.2625 19.0525 14.3875 19.4537 15.5375 19.4537C16.6875 19.4537 17.8125 19.0525 18.7 18.3275C18.7663 18.2837 23.9588 14.1162 26.9738 11.7212C27.3838 11.395 27.9863 11.6875 27.9875 12.2087C28 14.97 28 20.425 28 20.425Z" fill="#302CFF"/>
<path id="Fill-4" d="M27.3451 7.59201C26.2626 5.55201 24.1326 4.24951 21.7876 4.24951H9.3126C6.9676 4.24951 4.8376 5.55201 3.7551 7.59201C3.5126 8.04826 3.6276 8.61701 4.03135 8.93951L13.3126 16.3633C13.9626 16.8883 14.7501 17.1495 15.5376 17.1495C15.5426 17.1495 15.5463 17.1495 15.5501 17.1495C15.5538 17.1495 15.5588 17.1495 15.5626 17.1495C16.3501 17.1495 17.1376 16.8883 17.7876 16.3633L27.0688 8.93951C27.4726 8.61701 27.5876 8.04826 27.3451 7.59201Z" fill="#302CFF"/>
</g>
</g>
</g>
</svg>
