<svg width="80" height="80" viewBox="0 0 80 80" fill="none" xmlns="http://www.w3.org/2000/svg">
<g id="5fc18269bd65e810af7c8df7_icon-follow-social-media-6-code-template 1">
<g clip-path="url(#clip0_749_1415)">
<path id="Vector" d="M80 0H0V80H80V0Z" fill="#28A8E9"/>
<path id="Vector_2" d="M20.7568 37.4298C32.7348 32.2112 40.722 28.7707 44.7184 27.1085C56.1289 22.3625 58.5 21.5381 60.0454 21.5105C60.3852 21.5049 61.1452 21.5891 61.6375 21.9885C62.0532 22.3259 62.1675 22.7815 62.2223 23.1012C62.277 23.421 62.3451 24.1495 62.291 24.7187C61.6727 31.2157 58.9971 46.9821 57.636 54.2588C57.06 57.3379 55.9258 58.3703 54.828 58.4714C52.4419 58.6909 50.63 56.8944 48.3191 55.3796C44.7028 53.0091 42.6598 51.5334 39.1496 49.2203C35.0929 46.5469 37.7226 45.0777 40.0345 42.6764C40.6396 42.048 51.1526 32.4857 51.356 31.6182C51.3815 31.5097 51.4051 31.1053 51.1649 30.8918C50.9246 30.6782 50.5701 30.7513 50.3142 30.8093C49.9514 30.8916 44.1744 34.71 32.9831 42.2646C31.3432 43.3905 29.858 43.9392 28.5272 43.9104C27.0601 43.8787 24.2381 43.081 22.1402 42.399C19.5672 41.5626 17.5221 41.1204 17.7001 39.6999C17.7929 38.9599 18.8118 38.2033 20.7568 37.4298Z" fill="white"/>
</g>
</g>
<defs>
<clipPath id="clip0_749_1415">
<rect width="80" height="80" rx="15" fill="white"/>
</clipPath>
</defs>
</svg>
