<svg width="80" height="80" viewBox="0 0 80 80" fill="none" xmlns="http://www.w3.org/2000/svg">
<g id="5fc18269e38b23542b339bf2_icon-follow-social-media-7-code-template 1">
<g clip-path="url(#clip0_749_1406)">
<path id="Vector" d="M80 0H0V80H80V0Z" fill="#56D062"/>
<path id="Vector_2" fill-rule="evenodd" clip-rule="evenodd" d="M56.9226 22.9777C52.4326 18.4824 46.4611 16.0056 40.0994 16.0029C26.9906 16.0029 16.322 26.6714 16.3167 39.7836C16.3149 43.9753 17.4099 48.0669 19.4912 51.6736L16.1172 63.9973L28.7248 60.6901C32.1987 62.585 36.1097 63.5837 40.0898 63.5849H40.0997C53.2071 63.5849 63.8769 52.9156 63.8819 39.8027C63.8845 33.4478 61.413 27.4728 56.9226 22.9777ZM40.0994 59.5685H40.0912C36.5444 59.567 33.0658 58.6138 30.0304 56.8131L29.3089 56.3846L21.8274 58.3472L23.8243 51.0528L23.3542 50.305C21.3754 47.1577 20.3305 43.52 20.3322 39.7851C20.3363 28.8865 29.2041 20.0197 40.1073 20.0197C45.3872 20.0215 50.3504 22.0802 54.0824 25.8166C57.8143 29.553 59.8684 34.5194 59.8666 39.8012C59.8619 50.7007 50.9948 59.5685 40.0994 59.5685ZM50.9421 44.7639C50.3481 44.4662 47.4263 43.0291 46.8814 42.8305C46.3371 42.6322 45.9405 42.5335 45.5448 43.1281C45.1484 43.7227 44.0098 45.0615 43.663 45.4578C43.3162 45.8544 42.9699 45.9042 42.3755 45.6066C41.7812 45.3093 39.8666 44.6815 37.5966 42.657C35.8302 41.0813 34.6377 39.1354 34.2908 38.5407C33.9446 37.9455 34.2879 37.6549 34.5515 37.328C35.1948 36.5291 35.839 35.6917 36.037 35.2954C36.2353 34.8986 36.136 34.5515 35.9872 34.2542C35.839 33.9569 34.6506 31.0319 34.1555 29.8418C33.6728 28.6835 33.1833 28.8399 32.8183 28.8218C32.472 28.8044 32.0757 28.801 31.6794 28.801C31.2833 28.801 30.6394 28.9495 30.0945 29.5448C29.5499 30.1397 28.015 31.5771 28.015 34.502C28.015 37.427 30.1444 40.2526 30.4414 40.6492C30.7385 41.0459 34.6318 47.0481 40.5928 49.6218C42.0106 50.2346 43.1173 50.6 43.9805 50.8739C45.4042 51.3261 46.6992 51.2623 47.7233 51.1094C48.8652 50.9386 51.2389 49.6716 51.7345 48.2838C52.2296 46.8955 52.2296 45.7059 52.0808 45.4578C51.9325 45.21 51.5362 45.0615 50.9421 44.7639Z" fill="white"/>
</g>
</g>
<defs>
<clipPath id="clip0_749_1406">
<rect width="80" height="80" rx="15" fill="white"/>
</clipPath>
</defs>
</svg>
