<svg width="21" height="20" viewBox="0 0 21 20" fill="none" xmlns="http://www.w3.org/2000/svg">
<g id="Star">
<g id="Iconly/Bold/Star">
<g id="Star_2">
<path id="Vector" d="M15.4321 11.9335C15.2163 12.1427 15.1171 12.4452 15.1663 12.7418L15.9071 16.8418C15.9696 17.1893 15.8229 17.541 15.5321 17.7418C15.2471 17.9502 14.8679 17.9752 14.5571 17.8085L10.8663 15.8835C10.7379 15.8152 10.5954 15.7785 10.4496 15.7743H10.2238C10.1454 15.786 10.0688 15.811 9.99878 15.8493L6.30711 17.7835C6.12461 17.8752 5.91794 17.9077 5.71545 17.8752C5.22211 17.7818 4.89294 17.3118 4.97378 16.816L5.71545 12.716C5.76461 12.4168 5.66544 12.1127 5.44961 11.9002L2.44045 8.9835C2.18878 8.73933 2.10128 8.37266 2.21628 8.04183C2.32795 7.71183 2.61294 7.471 2.95711 7.41683L7.09878 6.816C7.41378 6.7835 7.69044 6.59183 7.83211 6.3085L9.65711 2.56683C9.70044 2.4835 9.75628 2.40683 9.82378 2.34183L9.89878 2.2835C9.93794 2.24016 9.98294 2.20433 10.0329 2.17516L10.1238 2.14183L10.2654 2.0835H10.6163C10.9296 2.116 11.2054 2.3035 11.3496 2.5835L13.1988 6.3085C13.3321 6.581 13.5913 6.77016 13.8904 6.816L18.0321 7.41683C18.3821 7.46683 18.6746 7.7085 18.7904 8.04183C18.8996 8.376 18.8054 8.74266 18.5488 8.9835L15.4321 11.9335Z" fill="#FEA800" fill-opacity="0.75"/>
</g>
</g>
</g>
</svg>
