<svg width="105" height="12" viewBox="0 0 105 12" fill="none" xmlns="http://www.w3.org/2000/svg">
<g id="podcast">
<path d="M13.4777 4.38584C13.4777 4.98053 13.3627 5.54336 13.1326 6.07434C12.9096 6.59823 12.6029 7.06195 12.2125 7.46549C11.8291 7.86195 11.376 8.17699 10.8532 8.41062C10.3304 8.64425 9.77628 8.76106 9.19075 8.76106H3.24133V6.60531H9.19075C9.49049 6.60531 9.7728 6.54513 10.0377 6.42478C10.3026 6.30442 10.5326 6.14513 10.7278 5.9469C10.9229 5.74159 11.0763 5.50443 11.1878 5.2354C11.2994 4.96637 11.3551 4.68319 11.3551 4.38584C11.3551 4.08142 11.2994 3.79823 11.1878 3.53628C11.0763 3.26726 10.9229 3.03363 10.7278 2.8354C10.5326 2.63717 10.3026 2.48142 10.0377 2.36814C9.7728 2.24779 9.49049 2.18761 9.19075 2.18761H2.12255V12H0V0.0424779H9.19075C9.77628 0.0424779 10.3304 0.159292 10.8532 0.39292C11.376 0.619469 11.8291 0.930973 12.2125 1.32743C12.6029 1.71681 12.9096 2.17699 13.1326 2.70796C13.3627 3.23186 13.4777 3.79115 13.4777 4.38584Z" fill="white"/>
<path d="M29.3393 6C29.3393 6.82832 29.2104 7.60708 28.9524 8.33628C28.6945 9.05841 28.3251 9.69204 27.8441 10.2372C27.3701 10.7823 26.7985 11.2142 26.1293 11.5327C25.4671 11.8442 24.7282 12 23.9127 12H20.1904C19.3748 12 18.6324 11.8442 17.9633 11.5327C17.2941 11.2142 16.719 10.7823 16.238 10.2372C15.764 9.69204 15.3981 9.05841 15.1402 8.33628C14.8823 7.60708 14.7533 6.82832 14.7533 6C14.7533 5.17876 14.8823 4.40708 15.1402 3.68496C15.3981 2.96283 15.764 2.33274 16.238 1.79469C16.719 1.24956 17.2941 0.821239 17.9633 0.509735C18.6324 0.19823 19.3748 0.0424779 20.1904 0.0424779H23.9127C24.7282 0.0424779 25.4671 0.19823 26.1293 0.509735C26.7985 0.821239 27.3701 1.24956 27.8441 1.79469C28.3251 2.33274 28.6945 2.96283 28.9524 3.68496C29.2104 4.40708 29.3393 5.17876 29.3393 6ZM27.1958 6C27.1958 5.47611 27.1192 4.98407 26.9658 4.52389C26.8194 4.05664 26.6033 3.6531 26.3175 3.31327C26.0387 2.96637 25.6972 2.69381 25.2929 2.49558C24.8886 2.29027 24.4285 2.18761 23.9127 2.18761H20.1904C19.6746 2.18761 19.211 2.29027 18.7997 2.49558C18.3954 2.69381 18.0504 2.96637 17.7646 3.31327C17.4858 3.6531 17.2697 4.05664 17.1163 4.52389C16.97 4.98407 16.8968 5.47611 16.8968 6C16.8968 6.52389 16.97 7.01947 17.1163 7.48673C17.2697 7.9469 17.4858 8.35044 17.7646 8.69735C18.0504 9.04425 18.3954 9.32035 18.7997 9.52566C19.211 9.72389 19.6746 9.82301 20.1904 9.82301H23.9127C24.4285 9.82301 24.8886 9.72389 25.2929 9.52566C25.6972 9.32035 26.0387 9.04425 26.3175 8.69735C26.6033 8.35044 26.8194 7.9469 26.9658 7.48673C27.1192 7.01947 27.1958 6.52389 27.1958 6Z" fill="white"/>
<path d="M45.6715 5.97876C45.6715 6.82124 45.539 7.61062 45.2741 8.3469C45.0092 9.07611 44.6363 9.71327 44.1553 10.2584C43.6744 10.7965 43.0923 11.2212 42.4092 11.5327C41.7331 11.8442 40.9837 12 40.1612 12H34.9019V9.80177H40.1612C40.684 9.80177 41.151 9.70265 41.5623 9.50443C41.9735 9.3062 42.3221 9.03717 42.6079 8.69735C42.9006 8.35044 43.1237 7.9469 43.277 7.48673C43.4304 7.01947 43.5071 6.51681 43.5071 5.97876C43.5071 5.44779 43.4304 4.95221 43.277 4.49204C43.1237 4.03186 42.9006 3.63186 42.6079 3.29204C42.3221 2.95221 41.9735 2.68319 41.5623 2.48496C41.151 2.28673 40.684 2.18761 40.1612 2.18761H33.8876V12H31.7023V0H40.1612C40.9837 0 41.7331 0.155752 42.4092 0.467257C43.0923 0.778761 43.6744 1.20354 44.1553 1.74159C44.6363 2.27965 45.0092 2.91327 45.2741 3.64248C45.539 4.3646 45.6715 5.14336 45.6715 5.97876Z" fill="white"/>
<path d="M60.4561 12H52.8547C52.0252 12 51.2723 11.8442 50.5962 11.5327C49.92 11.2212 49.3415 10.7965 48.8605 10.2584C48.3795 9.71327 48.0066 9.07611 47.7417 8.3469C47.4838 7.61062 47.3549 6.82124 47.3549 5.97876C47.3549 5.14336 47.4838 4.3646 47.7417 3.64248C48.0066 2.91327 48.3795 2.27965 48.8605 1.74159C49.3415 1.20354 49.92 0.778761 50.5962 0.467257C51.2723 0.155752 52.0252 0 52.8547 0H60.4561V2.18761H52.8547C52.3388 2.18761 51.8718 2.28673 51.4536 2.48496C51.0423 2.68319 50.6938 2.95221 50.408 3.29204C50.1222 3.63186 49.9026 4.03186 49.7493 4.49204C49.5959 4.95221 49.5192 5.44779 49.5192 5.97876C49.5192 6.51681 49.5959 7.01947 49.7493 7.48673C49.9026 7.9469 50.1222 8.35044 50.408 8.69735C50.6938 9.03717 51.0423 9.3062 51.4536 9.50443C51.8718 9.70265 52.3388 9.80177 52.8547 9.80177H60.4561V12Z" fill="white"/>
<path d="M76.3177 12H74.1743V8.71858H65.9246V6.49912H74.1743V2.18761H68.6013C68.0785 2.18761 67.5871 2.29027 67.127 2.49558C66.6669 2.69381 66.2661 2.96637 65.9246 3.31327C65.583 3.66018 65.3111 4.06726 65.109 4.53451C64.9138 4.99469 64.8162 5.49027 64.8162 6.02124V12H62.6519V6.02124C62.6519 5.18584 62.8087 4.40354 63.1224 3.67434C63.4361 2.94513 63.8613 2.30796 64.398 1.76283C64.9347 1.2177 65.5656 0.789381 66.2905 0.477876C67.0155 0.159292 67.7857 0 68.6013 0H76.3177V12Z" fill="white"/>
<path d="M92.3153 8.47434C92.3153 8.96283 92.2247 9.42301 92.0434 9.85487C91.8622 10.2796 91.6148 10.6513 91.3011 10.9699C90.9944 11.2885 90.6284 11.5398 90.2032 11.7239C89.785 11.908 89.3354 12 88.8544 12H76.3177V9.82301H88.8544C89.0426 9.82301 89.2169 9.79115 89.3772 9.72743C89.5445 9.65664 89.6874 9.56106 89.8059 9.44071C89.9314 9.31327 90.0289 9.16814 90.0986 9.00531C90.1684 8.84248 90.2032 8.66549 90.2032 8.47434C90.2032 8.28319 90.1684 8.10619 90.0986 7.94336C90.0289 7.77345 89.9314 7.62832 89.8059 7.50796C89.6874 7.38053 89.5445 7.28142 89.3772 7.21062C89.2169 7.13982 89.0426 7.10442 88.8544 7.10442H82.2985C81.8245 7.10442 81.3784 7.01239 80.9602 6.82832C80.5419 6.64425 80.176 6.39292 79.8623 6.07434C79.5486 5.74867 79.3012 5.36991 79.1199 4.93805C78.9387 4.50619 78.8481 4.04602 78.8481 3.55752C78.8481 3.08319 78.9387 2.63363 79.1199 2.20885C79.3012 1.77699 79.5486 1.40177 79.8623 1.08319C80.176 0.764602 80.5419 0.513274 80.9602 0.329204C81.3784 0.138053 81.8245 0.0424779 82.2985 0.0424779H91.5311V2.18761H82.2985C82.1173 2.18761 81.943 2.22655 81.7757 2.30442C81.6154 2.37522 81.476 2.47434 81.3575 2.60177C81.239 2.72212 81.1449 2.86726 81.0752 3.03717C81.0055 3.2 80.9706 3.37345 80.9706 3.55752C80.9706 3.74867 81.0055 3.9292 81.0752 4.09912C81.1449 4.26195 81.239 4.40708 81.3575 4.53451C81.476 4.65487 81.6154 4.75044 81.7757 4.82124C81.943 4.89204 82.1173 4.92743 82.2985 4.92743H88.8544C89.3354 4.92743 89.785 5.02301 90.2032 5.21416C90.6284 5.39823 90.9944 5.6531 91.3011 5.97876C91.6148 6.29735 91.8622 6.67257 92.0434 7.10442C92.2247 7.53628 92.3153 7.99292 92.3153 8.47434Z" fill="white"/>
<path d="M99.3434 12H97.1999V2.18761H91.5328V0.0424779H105V2.18761H99.3434V12Z" fill="white"/>
</g>
</svg>
