<svg width="20" height="20" viewBox="0 0 20 20" fill="none" xmlns="http://www.w3.org/2000/svg">
<g id="home-01">
<path id="Vector" d="M12.5 14.1667C11.8337 14.6853 10.9585 15 10 15C9.0415 15 8.16627 14.6853 7.5 14.1667" stroke="#331CFE" stroke-linecap="round"/>
<path id="Vector_2" d="M1.95884 11.0112C1.66466 9.09682 1.51757 8.13968 1.87949 7.29114C2.24141 6.44259 3.04437 5.86201 4.6503 4.70087L5.85017 3.83332C7.84792 2.38888 8.84677 1.66666 9.99935 1.66666C11.1519 1.66666 12.1508 2.38888 14.1485 3.83332L15.3484 4.70087C16.9543 5.86201 17.7573 6.44259 18.1192 7.29114C18.4811 8.13968 18.334 9.09682 18.0398 11.0112L17.789 12.6437C17.3719 15.3574 17.1634 16.7143 16.1902 17.5238C15.2169 18.3333 13.7941 18.3333 10.9483 18.3333H9.05035C6.20462 18.3333 4.78177 18.3333 3.80852 17.5238C2.83526 16.7143 2.62674 15.3574 2.20971 12.6437L1.95884 11.0112Z" stroke="#331CFE" stroke-linejoin="round"/>
</g>
</svg>
