<svg width="20" height="20" viewBox="0 0 20 20" fill="none" xmlns="http://www.w3.org/2000/svg">
<g id="notification-03">
<path id="Vector" d="M2.10892 11.995C1.93171 13.1226 2.72399 13.9052 3.69403 14.2952C7.41299 15.7905 12.5883 15.7905 16.3072 14.2952C17.2773 13.9052 18.0696 13.1226 17.8924 11.995C17.7835 11.3021 17.245 10.7251 16.846 10.1617C16.3234 9.41457 16.2715 8.59974 16.2714 7.73283C16.2714 4.38257 13.4639 1.66666 10.0007 1.66666C6.53743 1.66666 3.72993 4.38257 3.72993 7.73283C3.72984 8.59974 3.67792 9.41457 3.15533 10.1617C2.75635 10.7251 2.21783 11.3021 2.10892 11.995Z" stroke="#666969" stroke-linecap="round" stroke-linejoin="round"/>
<path id="Vector_2" d="M7.5 17.5C8.16344 18.0183 9.03958 18.3333 10 18.3333C10.9604 18.3333 11.8366 18.0183 12.5 17.5" stroke="#666969" stroke-linecap="round" stroke-linejoin="round"/>
</g>
</svg>
