<svg xmlns="http://www.w3.org/2000/svg" width="20" height="20" viewBox="0 0 20 20" fill="none">
  <g clip-path="url(#clip0_314_2316)">
    <path d="M10.0003 18.3333C14.6027 18.3333 18.3337 14.6023 18.3337 9.99996C18.3337 5.39759 14.6027 1.66663 10.0003 1.66663C5.39795 1.66663 1.66699 5.39759 1.66699 9.99996C1.66699 14.6023 5.39795 18.3333 10.0003 18.3333Z" stroke="#331CFE" stroke-width="1.5"/>
    <path d="M12.8779 10.329C12.7517 10.8513 12.1551 11.2204 10.9619 11.9585C9.80841 12.672 9.23174 13.0289 8.76691 12.8855C8.57474 12.8261 8.39974 12.7135 8.25851 12.5584C7.91699 12.1832 7.91699 11.4555 7.91699 10C7.91699 8.54462 7.91699 7.81686 8.25851 7.44166C8.39974 7.28655 8.57474 7.17394 8.76691 7.11465C9.23174 6.97124 9.80841 7.32801 10.9619 8.04156C12.1551 8.77971 12.7517 9.14879 12.8779 9.67104C12.93 9.88662 12.93 10.1135 12.8779 10.329Z" stroke="#331CFE" stroke-width="1.5" stroke-linejoin="round"/>
  </g>
  <defs>
    <clipPath id="clip0_314_2316">
      <rect width="20" height="20" fill="white"/>
    </clipPath>
  </defs>
</svg>