<svg width="20" height="20" viewBox="0 0 20 20" fill="none" xmlns="http://www.w3.org/2000/svg">
<g id="video-replay">
<path id="Vector" d="M14.7507 17.7795C13.774 17.9167 12.5003 17.9167 10.7923 17.9167H9.20898C5.85023 17.9167 4.17085 17.9167 3.12742 16.8733C2.08398 15.8298 2.08398 14.1504 2.08398 10.7917V9.20834C2.08398 5.84959 2.08398 4.17021 3.12742 3.12678C4.17085 2.08334 5.85023 2.08334 9.20898 2.08334H10.7923C14.1511 2.08334 15.8305 2.08334 16.8739 3.12678C17.9173 4.17021 17.9173 5.84959 17.9173 9.20834V10.7917C17.9173 11.7985 17.9173 12.6544 17.8892 13.3876C17.8666 13.9751 17.8554 14.2689 17.6329 14.3787C17.4104 14.4884 17.1616 14.3123 16.6638 13.9602L15.5423 13.1667" stroke="#666969" stroke-linecap="round" stroke-linejoin="round"/>
<path id="Vector_2" d="M12.4538 10.329C12.3065 10.8513 11.6104 11.2203 10.2184 11.9585C8.87268 12.672 8.19985 13.0288 7.65762 12.8854C7.43343 12.8261 7.22918 12.7135 7.06445 12.5583C6.66602 12.1832 6.66602 11.4554 6.66602 10C6.66602 8.54459 6.66602 7.81683 7.06445 7.44163C7.22918 7.28652 7.43343 7.17391 7.65762 7.11462C8.19985 6.97121 8.87268 7.32798 10.2184 8.04153C11.6104 8.77968 12.3065 9.14876 12.4538 9.67101C12.5145 9.88659 12.5145 10.1134 12.4538 10.329Z" stroke="#666969" stroke-linejoin="round"/>
</g>
</svg>
